<?xml version="1.0" encoding="utf-8"?>
<!-- Generator: Adobe Illustrator 16.0.0, SVG Export Plug-In . SVG Version: 6.00 Build 0)  -->
<!DOCTYPE svg PUBLIC "-//W3C//DTD SVG 1.1//EN" "http://www.w3.org/Graphics/SVG/1.1/DTD/svg11.dtd">
<svg version="1.1" id="Layer_1" xmlns="http://www.w3.org/2000/svg" xmlns:xlink="http://www.w3.org/1999/xlink" x="0px" y="0px"
	 width="20px" height="20px" viewBox="0 0 20 20" enable-background="new 0 0 20 20" xml:space="preserve">
<g>
	<path fill="#4D4D4F" d="M15.653,6.905c-2.062-0.119-2.773,1.982-3.051,1.982c-0.254,0-0.08-1.767-1.055-4.227
		c0.762-1.303,0.975-2.985,0.975-2.985l-0.91-0.634c0.043,0.769-0.133,1.781-0.503,2.646C9.792,1.09,7.704,0.09,5.945,0.129
		c-1.822,0.04-2.694,1.545-2.694,1.545S2.815,0.922,2.498,0.327C2.182-0.267,0.953,0.169,1.231,0.843
		c0.276,0.673,1.98,3.962,2.218,4.2c0.238,0.237,1.071,0,1.03-0.277C4.44,4.487,4.281,2.705,5.47,2.15
		C5.99,1.908,6.767,1.862,7.576,2.06C6.462,3.547,7.069,6.226,9.433,6.153c0.636-0.021,1.148-0.313,1.558-0.741
		c0.678,1.748,0.819,3.481,0.502,3.514c-0.397,0.04-1.071-1.07-2.299-1.268c-1.227-0.2-3.447,0.555-3.249,3.051
		c0.199,2.496,3.883,3.446,4.676,4.596c0.792,1.15-0.436,2.813-2.06,2.853c-1.625,0.042-3.21-1.267-3.646-1.623
		c-0.436-0.357-1.387,0.079-0.752,0.831c0.635,0.754,2.457,2.536,6.3,2.616c3.842,0.079,7.131-3.725,8.083-7.173
		C19.497,9.362,17.712,7.024,15.653,6.905z M9.868,5.28C8.681,5.954,7.61,4.487,8.362,3.656C8.87,3.094,9.521,3.273,9.893,3.448
		c0.18,0.205,0.344,0.432,0.49,0.684c0.082,0.145,0.162,0.292,0.236,0.441C10.403,4.873,10.151,5.12,9.868,5.28z"/>
</g>
<g>
</g>
<g>
</g>
<g>
</g>
<g>
</g>
<g>
</g>
<g>
</g>
<g>
</g>
<g>
</g>
<g>
</g>
<g>
</g>
<g>
</g>
<g>
</g>
<g>
</g>
<g>
</g>
<g>
</g>
</svg>
